<svg width="24.000000" height="24.000000" viewBox="0 0 24 24" fill="none" xmlns="http://www.w3.org/2000/svg" xmlns:xlink="http://www.w3.org/1999/xlink">
	<desc>
			Created with Pixso.
	</desc>
	<defs/>
	<rect id="\Icon" width="24.000000" height="24.000000" fill="#FFFFFF" fill-opacity="0"/>
	<mask id="mask8_7360" mask-type="alpha" maskUnits="userSpaceOnUse" x="0.000000" y="0.000000" width="24.000000" height="24.000000">
		<path id="Mask" d="M17.312 15.897L20.707 19.293C21.098 19.684 21.098 20.316 20.707 20.707C20.512 20.902 20.256 21 20 21C19.744 21 19.488 20.902 19.293 20.707L15.897 17.312C14.543 18.365 12.846 19 11 19C6.589 19 3 15.411 3 11C3 6.58899 6.589 3 11 3C15.411 3 19 6.58899 19 11C19 12.8459 18.365 14.543 17.312 15.897ZM11 5C7.69099 5 5 7.69104 5 11C5 14.309 7.69099 17 11 17C14.309 17 17 14.309 17 11C17 7.69104 14.309 5 11 5Z" clip-rule="evenodd" fill="#071435" fill-opacity="1.000000" fill-rule="evenodd"/>
	</mask>
	<g mask="url(#mask8_7360)">
		<rect id="Black" width="24.000000" height="24.000000" fill="#FFFFFF" fill-opacity="0"/>
		<rect id="Danger" width="24.000000" height="24.000000" fill="#050D23" fill-opacity="1.000000"/>
	</g>
</svg>
